<svg width="124" height="134" viewBox="0 0 124 134" fill="none" xmlns="http://www.w3.org/2000/svg">
<circle cx="40" cy="93.8789" r="40" fill="#007BFF"/>
<path d="M69.0576 48.3641V6.25644C69.0576 4.7695 69.5875 3.49613 70.6473 2.43634C71.7053 1.37836 72.9778 0.849365 74.4647 0.849365H117.721C119.208 0.849365 120.482 1.37836 121.541 2.43634C122.599 3.49613 123.128 4.7695 123.128 6.25644V38.6989C123.128 40.1859 122.599 41.4592 121.541 42.519C120.482 43.577 119.208 44.106 117.721 44.106H79.8718L73.6536 50.3241C72.7975 51.1803 71.817 51.3713 70.7122 50.8973C69.6091 50.4251 69.0576 49.5807 69.0576 48.3641Z" fill="#FF8800"/>
<path d="M40 125.979C37.8 125.979 35.9167 125.179 34.35 123.579C32.7833 121.979 32 120.079 32 117.879C32 115.679 32.7833 113.796 34.35 112.229C35.9167 110.662 37.8 109.879 40 109.879L42.4 107.579C42.9333 107.046 43.55 106.629 44.25 106.329C44.95 106.029 45.6667 105.879 46.4 105.879C47.9333 105.879 49.25 106.446 50.35 107.579C51.45 108.712 52 110.046 52 111.579V113.279C52 114.612 52.4333 115.712 53.3 116.579C54.1667 117.446 55.2667 117.879 56.6 117.879C57.6 117.879 58.5 117.579 59.3 116.979C60.1 116.379 60.6667 115.612 61 114.679L62.2 111.379C62.8 109.779 63.7667 108.462 65.1 107.429C66.4333 106.396 67.9667 105.879 69.7 105.879C70.4333 104.012 71.0167 102.079 71.45 100.079C71.8833 98.0789 72.1 96.0122 72.1 93.8789C72.1 87.9456 70.6167 82.5289 67.65 77.6289C64.6833 72.7289 60.8 68.8789 56 66.0789V69.8789C56 72.0789 55.2167 73.9622 53.65 75.5289C52.0833 77.0956 50.2 77.8789 48 77.8789H44V85.8789C44 87.0122 43.6167 87.9622 42.85 88.7289C42.0833 89.4956 41.1333 89.8789 40 89.8789H36V96.6789C36 98.1456 35.5 99.3789 34.5 100.379C33.5 101.379 32.2667 101.879 30.8 101.879C29.8667 101.879 29.0167 101.679 28.25 101.279C27.4833 100.879 26.8667 100.312 26.4 99.5789L20 89.8789H16V93.8789C16 95.9456 15.3 97.7122 13.9 99.1789C12.5 100.646 10.8333 101.512 8.9 101.779C10.6333 108.712 14.3833 114.479 20.15 119.079C25.9167 123.679 32.5333 125.979 40 125.979ZM48 101.879C46.8667 101.879 45.9167 101.496 45.15 100.729C44.3833 99.9622 44 99.0122 44 97.8789C44 96.7456 44.3833 95.7956 45.15 95.0289C45.9167 94.2622 46.8667 93.8789 48 93.8789H52C53.1333 93.8789 54.0833 94.2622 54.85 95.0289C55.6167 95.7956 56 96.7456 56 97.8789C56 99.0122 55.6167 99.9622 54.85 100.729C54.0833 101.496 53.1333 101.879 52 101.879H48ZM57.3 89.8789C55.9667 89.8789 54.9167 89.3622 54.15 88.3289C53.3833 87.2956 53.2 86.1456 53.6 84.8789L55.1 80.4789C55.3667 79.6789 55.8333 79.0456 56.5 78.5789C57.1667 78.1122 57.9 77.8789 58.7 77.8789C60.0333 77.8789 61.0833 78.3956 61.85 79.4289C62.6167 80.4622 62.8 81.6122 62.4 82.8789L60.9 87.2789C60.6333 88.0789 60.1667 88.7122 59.5 89.1789C58.8333 89.6456 58.1 89.8789 57.3 89.8789ZM40 133.879C34.4667 133.879 29.2667 132.829 24.4 130.729C19.5333 128.629 15.3 125.779 11.7 122.179C8.1 118.579 5.25 114.346 3.15 109.479C1.05 104.612 0 99.4122 0 93.8789C0 88.3456 1.05 83.1456 3.15 78.2789C5.25 73.4122 8.1 69.1789 11.7 65.5789C15.3 61.9789 19.5333 59.1289 24.4 57.0289C29.2667 54.9289 34.4667 53.8789 40 53.8789C45.5333 53.8789 50.7333 54.9289 55.6 57.0289C60.4667 59.1289 64.7 61.9789 68.3 65.5789C71.9 69.1789 74.75 73.4122 76.85 78.2789C78.95 83.1456 80 88.3456 80 93.8789C80 99.4122 78.95 104.612 76.85 109.479C74.75 114.346 71.9 118.579 68.3 122.179C64.7 125.779 60.4667 128.629 55.6 130.729C50.7333 132.829 45.5333 133.879 40 133.879Z" fill="#FF8800"/>
</svg>
