<svg width="585" height="87" viewBox="0 0 585 87" fill="none" xmlns="http://www.w3.org/2000/svg">
<path d="M53.9995 24.4857V3.43181C53.9995 2.68834 54.2645 2.05166 54.7944 1.52176C55.3233 0.992768 55.9596 0.728271 56.7031 0.728271H78.3314C79.0749 0.728271 79.7116 0.992768 80.2414 1.52176C80.7704 2.05166 81.0349 2.68834 81.0349 3.43181V19.6531C81.0349 20.3965 80.7704 21.0332 80.2414 21.5631C79.7116 22.0921 79.0749 22.3566 78.3314 22.3566H59.4066L56.2975 25.4657C55.8695 25.8937 55.3792 25.9893 54.8268 25.7523C54.2753 25.5162 53.9995 25.094 53.9995 24.4857Z" fill="#007BFF"/>
<path d="M34.0173 81.4167C49.4352 81.4167 61.9339 68.918 61.9339 53.5C61.9339 38.0821 49.4352 25.5834 34.0173 25.5834C18.5993 25.5834 6.10059 38.0821 6.10059 53.5C6.10059 68.918 18.5993 81.4167 34.0173 81.4167Z" stroke="#FF8800" stroke-width="6" stroke-linecap="round" stroke-linejoin="round"/>
<path d="M6.10059 53.5H61.9339" stroke="#FF8800" stroke-width="6" stroke-linecap="round" stroke-linejoin="round"/>
<path d="M34.0173 25.5834C41 33.2279 44.9683 43.1486 45.1839 53.5C44.9683 63.8514 41 73.7721 34.0173 81.4167C27.0345 73.7721 23.0662 63.8514 22.8506 53.5C23.0662 43.1486 27.0345 33.2279 34.0173 25.5834Z" stroke="#FF8800" stroke-width="6" stroke-linecap="round" stroke-linejoin="round"/>
<path d="M92.3772 60.3929C93.1212 60.3929 94.1132 60.2689 95.3532 60.0209V56.3009H92.2532V47.7449H106.885V69.8789H97.5232L96.5932 67.8949H96.3452C94.1958 69.6309 91.6538 70.4989 88.7192 70.4989C79.0472 70.4989 74.2112 63.9682 74.2112 50.9069C74.2112 44.3762 75.5132 39.3956 78.1172 35.9649C80.7625 32.4929 85.2058 30.7569 91.4472 30.7569C96.0765 30.7569 100.458 31.3976 104.591 32.6789L102.545 44.3349C97.9158 43.0536 94.5885 42.4129 92.5632 42.4129C90.5792 42.4129 89.2565 43.0742 88.5952 44.3969C87.9752 45.7196 87.6652 47.9722 87.6652 51.1549C87.6652 54.3376 87.9545 56.6729 88.5332 58.1609C89.1532 59.6489 90.4345 60.3929 92.3772 60.3929ZM111.585 62.1909V30.1369H124.295V59.3389C124.295 60.4549 125.059 61.0129 126.589 61.0129L125.659 70.4989H120.575C114.581 70.4989 111.585 67.7296 111.585 62.1909ZM128.271 54.9369C128.271 49.4809 129.469 45.5336 131.867 43.0949C134.305 40.6562 138.087 39.4369 143.213 39.4369C148.379 39.4369 152.141 40.6356 154.497 43.0329C156.853 45.4302 158.031 49.3776 158.031 54.8749C158.031 60.3309 156.873 64.2989 154.559 66.7789C152.285 69.2589 148.524 70.4989 143.275 70.4989C138.067 70.4989 134.264 69.2589 131.867 66.7789C129.469 64.2989 128.271 60.3516 128.271 54.9369ZM144.825 49.6669C144.618 48.9229 144.081 48.5509 143.213 48.5509C142.345 48.5509 141.787 48.9229 141.539 49.6669C141.332 50.3696 141.229 51.8989 141.229 54.2549V55.7429C141.229 58.3882 141.332 60.1036 141.539 60.8889C141.787 61.6329 142.345 62.0049 143.213 62.0049C144.081 62.0049 144.618 61.6329 144.825 60.8889C145.073 60.1036 145.197 58.4916 145.197 56.0529V54.3169C145.197 51.9196 145.073 50.3696 144.825 49.6669ZM190.38 54.3169C190.38 57.0449 190.215 59.3389 189.884 61.1989C189.595 63.0176 189.037 64.6709 188.21 66.1589C186.598 69.0522 183.395 70.4989 178.6 70.4989C175.624 70.4989 173.248 69.8582 171.47 68.5769L170.974 69.8789H160.806V30.1369H173.268V40.6769C175.004 39.8502 176.906 39.4369 178.972 39.4369C183.56 39.4369 186.598 40.5942 188.086 42.9089C189.616 45.1822 190.38 48.9849 190.38 54.3169ZM175.562 61.6949C176.43 61.6949 176.968 61.2402 177.174 60.3309C177.381 59.3802 177.484 57.7476 177.484 55.4329C177.484 53.0769 177.36 51.4236 177.112 50.4729C176.864 49.4809 176.327 48.9849 175.5 48.9849C174.963 48.9849 174.322 49.1502 173.578 49.4809V61.4469C174.322 61.6122 174.984 61.6949 175.562 61.6949ZM219.425 48.1789L219.053 60.5789C219.053 61.1576 219.26 61.5502 219.673 61.7569C220.128 61.9222 220.913 62.0049 222.029 62.0049L220.851 70.2509C218.371 70.4162 216.697 70.4989 215.829 70.4989C212.812 70.4989 210.621 69.6929 209.257 68.0809H208.823C206.839 69.6929 204.338 70.4989 201.321 70.4989C198.345 70.4989 196.072 69.7136 194.501 68.1429C192.972 66.5309 192.207 64.3196 192.207 61.5089C192.207 58.0369 193.364 55.6189 195.679 54.2549C198.035 52.8909 201.755 52.0229 206.839 51.6509V50.5349C206.839 49.7909 206.446 49.4189 205.661 49.4189C203.553 49.4189 199.936 50.0596 194.811 51.3409L192.889 41.5449C198.8 40.1396 203.884 39.4369 208.141 39.4369C212.398 39.4369 215.333 40.1396 216.945 41.5449C218.598 42.9502 219.425 45.1616 219.425 48.1789ZM205.413 62.5009C206.612 62.5009 207.211 61.8809 207.211 60.6409V58.2849C205.062 58.5742 203.987 59.4009 203.987 60.7649C203.987 61.9222 204.462 62.5009 205.413 62.5009ZM224.262 62.1909V30.1369H236.972V59.3389C236.972 60.4549 237.737 61.0129 239.266 61.0129L238.336 70.4989H233.252C227.259 70.4989 224.262 67.7296 224.262 62.1909ZM378.275 69.8789H353.723V31.3769H379.143L378.275 41.6069H366.991V46.2569H376.849V55.1849H366.991V60.4549H379.143L378.275 69.8789ZM402.265 39.4369C408.052 39.4369 410.945 42.2476 410.945 47.8689V69.8789H397.863V50.6589C397.863 49.9976 397.512 49.6669 396.809 49.6669C396.148 49.6669 395.404 49.8736 394.577 50.2869V69.8789H381.681V40.1809H393.399L393.771 42.1029C396.375 40.3256 399.207 39.4369 402.265 39.4369ZM427.761 39.4369H444.625V47.0009H440.037V47.2489C441.319 48.2409 441.959 49.7082 441.959 51.6509C441.959 58.1402 437.785 61.3849 429.435 61.3849H425.529C425.199 61.3849 425.033 61.5709 425.033 61.9429C425.033 62.3149 425.199 62.5009 425.529 62.5009H435.387C440.678 62.5009 443.323 64.6502 443.323 68.9489C443.323 75.6449 438.095 78.9929 427.637 78.9929C423.421 78.9929 420.156 78.5176 417.841 77.5669C415.527 76.6162 414.369 74.9009 414.369 72.4209C414.369 71.0569 415.093 70.0442 416.539 69.3829V69.1349C414.638 68.1429 413.687 66.4896 413.687 64.1749C413.687 61.8602 415.258 60.0622 418.399 58.7809C415.506 56.7142 414.059 53.8622 414.059 50.2249C414.059 46.5462 415.258 43.8389 417.655 42.1029C420.053 40.3256 423.421 39.4369 427.761 39.4369ZM428.319 48.9229C427.245 48.9229 426.707 49.9562 426.707 52.0229C426.707 54.0896 427.286 55.1229 428.443 55.1229C429.518 55.1229 430.055 54.1102 430.055 52.0849C430.055 50.9689 429.931 50.1629 429.683 49.6669C429.435 49.1709 428.981 48.9229 428.319 48.9229ZM425.033 71.6769H432.101C432.473 71.6769 432.659 71.5322 432.659 71.2429V70.8709C432.659 70.5816 432.473 70.4369 432.101 70.4369H425.033C424.744 70.4369 424.599 70.5816 424.599 70.8709V71.2429C424.599 71.5322 424.744 71.6769 425.033 71.6769ZM446.59 62.1909V30.1369H459.3V59.3389C459.3 60.4549 460.065 61.0129 461.594 61.0129L460.664 70.4989H455.58C449.587 70.4989 446.59 67.7296 446.59 62.1909ZM477.537 69.8789H464.641V40.8009H477.537V69.8789ZM464.393 34.5389C464.393 31.0256 466.604 29.2689 471.027 29.2689C475.449 29.2689 477.661 31.0256 477.661 34.5389C477.661 36.3576 477.103 37.6596 475.987 38.4449C474.912 39.2302 473.259 39.6229 471.027 39.6229C468.795 39.6229 467.121 39.2509 466.005 38.5069C464.93 37.7216 464.393 36.3989 464.393 34.5389ZM504.338 60.6409C504.338 67.2129 500.514 70.4989 492.868 70.4989C488.9 70.4989 485.056 70.0649 481.336 69.1969L482.142 60.0829C487.308 61.3229 490.739 61.9429 492.434 61.9429C493.012 61.9429 493.302 61.7569 493.302 61.3849C493.302 61.0129 492.971 60.7029 492.31 60.4549C488.052 59.0082 484.952 57.4789 483.01 55.8669C481.067 54.2549 480.096 51.9402 480.096 48.9229C480.096 45.9056 481.15 43.5702 483.258 41.9169C485.407 40.2636 488.28 39.4369 491.876 39.4369C495.513 39.4369 499.502 39.8502 503.842 40.6769L502.54 50.0389C497.084 48.9642 493.777 48.4269 492.62 48.4269C492.082 48.4269 491.814 48.6336 491.814 49.0469C491.814 49.3776 492.165 49.6669 492.868 49.9149C496.298 51.0309 498.778 52.1469 500.308 53.2629C501.837 54.3376 502.891 55.4536 503.47 56.6109C504.048 57.7682 504.338 59.1116 504.338 60.6409ZM527.421 39.4369C533.043 39.4369 535.853 42.0409 535.853 47.2489V69.8789H522.771V50.6589C522.771 49.9976 522.42 49.6669 521.717 49.6669C521.056 49.6669 520.312 49.8736 519.485 50.2869V69.8789H506.589V30.1369H519.051V42.0409C521.573 40.3049 524.363 39.4369 527.421 39.4369Z" fill="#FF8800"/>
<path d="M269.991 57.8509H267.325V69.8789H254.305V31.3769H269.309C274.393 31.3769 278.093 32.4102 280.407 34.4769C282.722 36.5436 283.879 39.9536 283.879 44.7069C283.879 49.4602 282.763 52.8496 280.531 54.8749C278.299 56.8589 274.786 57.8509 269.991 57.8509ZM270.611 48.8609C270.983 48.1996 271.169 47.0836 271.169 45.5129C271.169 43.9422 270.963 42.8262 270.549 42.1649C270.177 41.5036 269.454 41.1729 268.379 41.1729H267.077V49.8529H268.689C269.64 49.8529 270.281 49.5222 270.611 48.8609ZM299.155 53.2629V69.8789H286.383V40.1809H297.419L297.791 42.1649H298.039C299.031 41.2556 300.168 40.6356 301.449 40.3049C302.731 39.9329 304.611 39.7469 307.091 39.7469L306.719 50.0389H302.503C301.263 50.0389 300.395 50.2662 299.899 50.7209C299.403 51.1756 299.155 52.0229 299.155 53.2629ZM308.761 54.9369C308.761 49.4809 309.96 45.5336 312.357 43.0949C314.796 40.6562 318.578 39.4369 323.703 39.4369C328.87 39.4369 332.631 40.6356 334.987 43.0329C337.343 45.4302 338.521 49.3776 338.521 54.8749C338.521 60.3309 337.364 64.2989 335.049 66.7789C332.776 69.2589 329.014 70.4989 323.765 70.4989C318.557 70.4989 314.754 69.2589 312.357 66.7789C309.96 64.2989 308.761 60.3516 308.761 54.9369ZM325.315 49.6669C325.108 48.9229 324.571 48.5509 323.703 48.5509C322.835 48.5509 322.277 48.9229 322.029 49.6669C321.822 50.3696 321.719 51.8989 321.719 54.2549V55.7429C321.719 58.3882 321.822 60.1036 322.029 60.8889C322.277 61.6329 322.835 62.0049 323.703 62.0049C324.571 62.0049 325.108 61.6329 325.315 60.8889C325.563 60.1036 325.687 58.4916 325.687 56.0529V54.3169C325.687 51.9196 325.563 50.3696 325.315 49.6669Z" fill="#007BFF"/>
</svg>
